<svg xmlns="http://www.w3.org/2000/svg" width="768" height="223" fill="none"><g clip-path="url(#a)"><path fill="#B95" d="M696 43.355c0-.55-.45-.99-1-.99-.56 0-1 .44-1 .99 0 .56.44 1.01 1 1.01.55 0 1-.45 1-1.01m0-4.11c0-.55-.45-1-1-1-.56 0-1 .45-1 1s.44 1 1 1c.55 0 1-.45 1-1m0-4.11c0-.55-.45-1-1-1-.56 0-1 .45-1 1s.44 1 1 1c.55 0 1-.45 1-1m0-4.11c0-.56-.45-1-1-1-.56 0-1 .44-1 1 0 .55.44 1 1 1 .55 0 1-.45 1-1m0-4.12c0-.55-.45-1-1-1-.56 0-1 .45-1 1s.44 1 1 1c.55 0 1-.45 1-1m0-4.11c0-.55-.45-1-1-1-.56 0-1 .45-1 1s.44 1 1 1c.55 0 1-.45 1-1m0-4.11c0-.56-.45-1-1-1-.56 0-1 .44-1 1 0 .55.44 1 1 1 .55 0 1-.45 1-1m0-4.12c0-.55-.45-1-1-1-.56 0-1 .45-1 1 0 .56.44 1 1 1 .55 0 1-.44 1-1m0-4.11c0-.55-.45-1-1-1-.56 0-1 .45-1 1s.44 1 1 1c.55 0 1-.45 1-1m0-4.11c0-.55-.45-1-1-1-.56 0-1 .45-1 1s.44 1 1 1c.55 0 1-.45 1-1m0-4.12c0-.55-.45-1-1-1-.56 0-1 .45-1 1 0 .56.44 1 1 1 .55 0 1-.44 1-1m0-4.11c0-.55-.45-1-1-1-.56 0-1 .45-1 1s.44 1 1 1c.55 0 1-.45 1-1M695 48.475c.13 0 .26-.03.38-.08s.23-.12.33-.22q.06-.06.12-.15c.04-.05.07-.11.09-.17.03-.06.04-.12.06-.19.01-.06.02-.13.02-.19 0-.13-.03-.26-.08-.38a.9.9 0 0 0-.21-.33c-.1-.09-.21-.16-.33-.22-.18-.07-.38-.09-.58-.05-.06 0-.12.03-.18.05-.06.03-.12.06-.18.1-.05.03-.1.08-.15.12-.09.09-.16.2-.22.33-.05.12-.07.25-.07.38 0 .06 0 .13.02.19 0 .07.03.13.05.19.03.06.06.12.1.17.03.06.08.11.12.15.05.05.1.09.15.13q.09.06.18.09.09.045.18.06c.07.01.13.02.2.02M695 103.995c.13 0 .26-.02.38-.07s.23-.13.32-.22c.1-.09.17-.2.22-.33.05-.12.08-.25.08-.38 0-.26-.11-.52-.3-.7-.09-.1-.2-.17-.32-.22a1 1 0 0 0-.76 0c-.13.05-.24.12-.33.22-.04.04-.09.09-.12.15-.04.05-.07.11-.1.17-.02.06-.04.12-.05.19-.02.06-.02.13-.02.19 0 .13.02.26.07.38.06.13.13.24.22.33s.2.17.33.22c.12.05.25.07.38.07M696 117.595c0-.55-.45-1-1-1s-1 .45-1 1 .45 1 1 1 1-.45 1-1m0-3.65c0-.56-.45-1-1-1s-1 .44-1 1c0 .55.45 1 1 1s1-.45 1-1m0-3.65c0-.56-.45-1-1-1s-1 .44-1 1c0 .55.45 1 1 1s1-.45 1-1m0-3.66c0-.55-.45-1-1-1s-1 .45-1 1c0 .56.45 1 1 1s1-.44 1-1M695 122.245c.13 0 .26-.02.38-.07.12-.06.23-.13.33-.22q.135-.135.21-.33c.05-.12.08-.25.08-.38s-.03-.26-.08-.38q-.075-.18-.21-.33-.15-.135-.33-.21a1 1 0 0 0-.76 0q-.195.075-.33.21c-.09.1-.16.21-.22.33-.05.12-.07.25-.07.38s.02.26.07.38c.06.13.13.24.22.33s.2.16.33.22c.12.05.25.07.38.07M683.412 69.876h23.176l-1.807 8.248h-.03l-2.111 11.588h.864c0 1.178-1.168 2.013-2.563 2.602v2.632s-.992 0-2.966.844c-1.148.491-1.954 1.267-2.435 1.837a1.3 1.3 0 0 1 .766 1.178c0 .717-.579 1.296-1.296 1.296a1.294 1.294 0 0 1-.53-2.474c-.482-.57-1.287-1.346-2.436-1.837-1.974-.844-2.965-.844-2.965-.844v-2.632c-1.395-.599-2.563-1.433-2.563-2.602h.864l-2.308-12.619-1.65-7.217zm12.374 4.487c-.344-.176-.58-.461-.747-.736-.157.275-.393.55-.746.736-1.345.698-2.003 1.581-2.003 2.681q0 .398.118.707l.137.373h-.236l.855 11.588h3.79l.855-11.588h-.266l.138-.373q.118-.31.118-.707c0-1.1-.658-1.983-2.004-2.68zm7.757 3.761h-.422l.118-.373c.059-.206.098-.442.098-.707 0-1.1-.226-1.983-1.355-2.68-.285-.177-.481-.462-.619-.737-.137.275-.334.55-.618.736-1.12.698-1.67 1.581-1.67 2.681 0 .265.03.501.098.707l.118.373h-.314l-.854 11.588h3.289l2.112-11.588zm-11.568 11.588-.854-11.588h-.344l.118-.373a2.2 2.2 0 0 0 .098-.707c0-1.1-.54-1.983-1.669-2.68-.285-.177-.481-.462-.619-.737-.137.275-.333.55-.618.736-1.12.698-1.444 1.581-1.444 2.681q-.002.398.098.707l.118.373h-.402l2.111 11.588h3.407m-6.815-23.676v-4.272s1.64 0 4.92-1.64c2.053-1.03 3.467-2.7 4.233-3.8a1.04 1.04 0 0 1-.374-.795c0-.393.226-.727.55-.914a2.346 2.346 0 0 1-1.826-2.278A2.343 2.343 0 0 1 695 50a2.343 2.343 0 0 1 2.337 2.337c0 1.11-.785 2.043-1.826 2.278.324.187.55.511.55.914 0 .324-.148.599-.374.795.766 1.11 2.18 2.78 4.233 3.8 3.28 1.64 4.92 1.64 4.92 1.64v4.272c1.257.687 2.15 1.552 2.16 2.661h-24c0-1.1.903-1.974 2.16-2.661m11.372-13.699c0-.844-.687-1.532-1.532-1.532s-1.532.688-1.532 1.532.687 1.532 1.532 1.532 1.532-.687 1.532-1.532m-3.692 11.686 1.541-.167.629 1.414.628-1.414 1.542.167-.913-1.247.913-1.247-1.542.167-.628-1.414-.629 1.414-1.541-.167.913 1.247zM690.196 128.771q.533-.08.975-.151 3.005-.444 3.449-3.449c.046-.294.092-.621.151-.975A.24.24 0 0 1 695 124c.111 0 .216.085.229.196.052.354.105.681.151.975q.444 3.005 3.449 3.449c.294.046.621.092.975.151.111.02.196.118.196.229a.23.23 0 0 1-.196.229q-.533.08-.975.151-3.005.444-3.449 3.449c-.046.294-.092.621-.151.975A.24.24 0 0 1 695 134a.23.23 0 0 1-.229-.196c-.052-.354-.105-.681-.151-.975q-.444-3.005-3.449-3.449c-.294-.046-.621-.092-.975-.151A.24.24 0 0 1 690 129c0-.111.085-.216.196-.229M723.443 141.807 714 141l9.443-.807-1.939-3.689 3.689 1.939L726 129l.807 9.443 3.689-1.939-1.939 3.689L738 141l-9.443.807 1.939 3.689-3.689-1.939L726 153l-.807-9.443-3.689 1.939z"/><path fill="#B19552" d="M727 126.61c0-.55-.45-1-1-1-.56 0-1 .45-1 1 0 .56.44 1 1 1 .55 0 1-.44 1-1m0-3.96c0-.55-.45-1-1-1-.56 0-1 .45-1 1s.44 1 1 1c.55 0 1-.45 1-1m0-3.97c0-.55-.45-1-1-1-.56 0-1 .45-1 1 0 .56.44 1 1 1 .55 0 1-.44 1-1m0-3.96c0-.55-.45-1-1-1-.56 0-1 .45-1 1s.44 1 1 1c.55 0 1-.45 1-1m0-3.97c0-.55-.45-1-1-1-.56 0-1 .45-1 1 0 .56.44 1 1 1 .55 0 1-.44 1-1m0-3.96c0-.55-.45-1-1-1-.56 0-1 .45-1 1s.44 1 1 1c.55 0 1-.45 1-1m0-3.96c0-.56-.45-1-1-1-.56 0-1 .44-1 1 0 .55.44 1 1 1 .55 0 1-.45 1-1m0-3.97c0-.55-.45-1-1-1-.56 0-1 .45-1 1s.44 1 1 1c.55 0 1-.45 1-1m0-3.96c0-.55-.45-1-1-1-.56 0-1 .45-1 1s.44 1 1 1c.55 0 1-.45 1-1m0-3.97c0-.55-.45-1-1-1-.56 0-1 .45-1 1 0 .56.44 1 1 1 .55 0 1-.44 1-1m0-3.96c0-.55-.45-1-1-1-.56 0-1 .45-1 1s.44 1 1 1c.55 0 1-.45 1-1m0-3.97c0-.55-.45-1-1-1-.56 0-1 .45-1 1 0 .56.44 1 1 1 .55 0 1-.44 1-1m0-3.96c0-.55-.45-1-1-1-.56 0-1 .45-1 1s.44 1 1 1c.55 0 1-.45 1-1m0-3.97c0-.55-.45-1-1-1-.56 0-1 .45-1 1 0 .56.44 1.01 1 1.01.55 0 1-.45 1-1.01m0-3.96c0-.55-.45-1-1-1-.56 0-1 .45-1 1s.44 1 1 1c.55 0 1-.45 1-1m0-3.96c0-.56-.45-1-1-1-.56 0-1 .44-1 1 0 .55.44 1 1 1 .55 0 1-.45 1-1m0-3.97c0-.55-.45-1-1-1-.56 0-1 .45-1 1s.44 1 1 1c.55 0 1-.45 1-1m0-3.96c0-.56-.45-1-1-1-.56 0-1 .44-1 1 0 .55.44 1 1 1 .55 0 1-.45 1-1m0-3.97c0-.55-.45-1-1-1-.56 0-1 .45-1 1 0 .56.44 1 1 1 .55 0 1-.44 1-1m0-3.96c0-.55-.45-1-1-1-.56 0-1 .45-1 1s.44 1 1 1c.55 0 1-.45 1-1m0-3.97c0-.55-.45-1-1-1-.56 0-1 .45-1 1 0 .56.44 1.01 1 1.01.55 0 1-.45 1-1.01m0-3.96c0-.55-.45-1-1-1-.56 0-1 .45-1 1s.44 1 1 1c.55 0 1-.45 1-1m0-3.96c0-.56-.45-1.01-1-1.01-.56 0-1 .45-1 1.01 0 .55.44 1 1 1 .55 0 1-.45 1-1m0-3.97c0-.55-.45-1-1-1-.56 0-1 .45-1 1s.44 1 1 1c.55 0 1-.45 1-1m0-3.96c0-.56-.45-1-1-1-.56 0-1 .44-1 1 0 .55.44 1 1 1 .55 0 1-.45 1-1m0-3.97c0-.55-.45-1-1-1-.56 0-1 .45-1 1s.44 1 1 1c.55 0 1-.45 1-1m0-3.96c0-.55-.45-1-1-1-.56 0-1 .45-1 1s.44 1 1 1c.55 0 1-.45 1-1m0-3.97c0-.55-.45-1-1-1-.56 0-1 .45-1 1 0 .56.44 1 1 1 .55 0 1-.44 1-1m0-3.96c0-.55-.45-1-1-1-.56 0-1 .45-1 1s.44 1 1 1c.55 0 1-.45 1-1m0-3.96c0-.56-.45-1.01-1-1.01-.56 0-1 .45-1 1.01 0 .55.44.99 1 .99.55 0 1-.44 1-.99m0-3.97c0-.55-.45-1-1-1-.56 0-1 .45-1 1s.44 1 1 1c.55 0 1-.45 1-1m0-3.96c0-.56-.45-1-1-1-.56 0-1 .44-1 1 0 .55.44 1 1 1 .55 0 1-.45 1-1m0-3.97c0-.55-.45-1-1-1-.56 0-1 .45-1 1s.44 1 1 1c.55 0 1-.45 1-1m0-3.96c0-.56-.45-1-1-1-.56 0-1 .44-1 1 0 .55.44 1 1 1 .55 0 1-.45 1-1m0-3.97c0-.55-.45-1-1-1-.56 0-1 .45-1 1s.44 1 1 1c.55 0 1-.45 1-1m0-3.96c0-.55-.45-1-1-1-.56 0-1 .45-1 1s.44 1 1 1c.55 0 1-.45 1-1m0-3.97c0-.55-.45-1-1-1-.56 0-1 .45-1 1 0 .56.44 1 1 1 .55 0 1-.44 1-1m0-3.96c0-.55-.45-1-1-1-.56 0-1 .45-1 1s.44 1 1 1c.55 0 1-.45 1-1m0-3.96c0-.56-.45-1-1-1-.56 0-1 .44-1 1 0 .55.44 1 1 1 .55 0 1-.45 1-1m0-3.97c0-.55-.45-1-1-1-.56 0-1 .45-1 1s.44 1 1 1c.55 0 1-.45 1-1m0-3.96c0-.56-.45-1-1-1-.56 0-1 .44-1 1 0 .55.44 1 1 1 .55 0 1-.45 1-1m0-3.97c0-.55-.45-1-1-1-.56 0-1 .45-1 1s.44 1 1 1c.55 0 1-.45 1-1m0-3.96c0-.55-.45-1-1-1-.56 0-1 .45-1 1s.44 1 1 1c.55 0 1-.45 1-1m0-3.97c0-.55-.45-1-1-1-.56 0-1 .45-1 1s.44 1 1 1c.55 0 1-.45 1-1m0-3.96c0-.55-.45-1-1-1-.56 0-1 .45-1 1s.44 1 1 1c.55 0 1-.45 1-1m0-3.97c0-.55-.45-.99-1-.99-.56 0-1 .44-1 .99 0 .56.44 1 1 1 .55 0 1-.44 1-1m0-3.96c0-.55-.45-1-1-1-.56 0-1 .45-1 1s.44 1 1 1c.55 0 1-.45 1-1m0-3.96c0-.56-.45-1-1-1-.56 0-1 .44-1 1 0 .55.44.99 1 .99.55 0 1-.44 1-.99m0-3.97c0-.55-.45-1-1-1-.56 0-1 .45-1 1s.44 1 1 1c.55 0 1-.45 1-1m0-3.96c0-.56-.45-1-1-1-.56 0-1 .44-1 1 0 .55.44 1 1 1 .55 0 1-.45 1-1m0-3.97c0-.55-.45-1-1-1-.56 0-1 .45-1 1s.44 1 1 1c.55 0 1-.45 1-1m0-3.96c0-.55-.45-1-1-1-.56 0-1 .45-1 1s.44 1 1 1c.55 0 1-.45 1-1m0-3.97c0-.55-.45-1-1-1-.56 0-1 .45-1 1 0 .56.44 1 1 1 .55 0 1-.44 1-1m0-3.96c0-.55-.45-1-1-1-.56 0-1 .45-1 1s.44 1 1 1c.55 0 1-.45 1-1m0-3.97c0-.55-.45-.99-1-.99-.56 0-1 .44-1 .99 0 .56.44 1 1 1 .55 0 1-.44 1-1m0-3.96c0-.55-.45-1-1-1-.56 0-1 .45-1 1s.44 1 1 1c.55 0 1-.45 1-1m0-3.96c0-.56-.45-1-1-1-.56 0-1 .44-1 1 0 .55.44 1 1 1 .55 0 1-.45 1-1m0-3.97c0-.55-.45-1-1-1-.56 0-1 .45-1 1s.44 1 1 1c.55 0 1-.45 1-1m0-3.96c0-.55-.45-1-1-1-.56 0-1 .45-1 1s.44 1 1 1c.55 0 1-.45 1-1m0-3.97c0-.55-.45-1-1-1-.56 0-1 .45-1 1 0 .56.44 1 1 1 .55 0 1-.44 1-1m0-3.96c0-.55-.45-1-1-1-.56 0-1 .45-1 1s.44 1 1 1c.55 0 1-.45 1-1m0-3.97c0-.55-.45-1-1-1-.56 0-1 .45-1 1 0 .56.44 1 1 1 .55 0 1-.44 1-1m0-3.96c0-.55-.45-1-1-1-.56 0-1 .45-1 1s.44 1 1 1c.55 0 1-.45 1-1m0-3.97c0-.55-.45-.99-1-.99-.56 0-1 .44-1 .99 0 .56.44 1 1 1 .55 0 1-.44 1-1m0-3.96c0-.55-.45-1-1-1-.56 0-1 .45-1 1s.44 1 1 1c.55 0 1-.45 1-1m0-3.96c0-.55-.45-1-1-1-.56 0-1 .45-1 1s.44 1 1 1c.55 0 1-.45 1-1m0-3.97c0-.55-.45-1-1-1-.56 0-1 .45-1 1 0 .56.44 1 1 1 .55 0 1-.44 1-1m0-3.96c0-.55-.45-1-1-1-.56 0-1 .45-1 1s.44 1 1 1c.55 0 1-.45 1-1"/><path fill="#B95" d="M726 107.362c.06 0 .13 0 .19-.02.07-.02.13-.04.19-.06.06-.03.12-.06.17-.09a.988.988 0 0 0 .37-.45c.05-.12.08-.25.08-.38a1.05 1.05 0 0 0-.29-.71c-.05-.05-.1-.09-.16-.13-.05-.03-.11-.06-.17-.09a4 4 0 0 0-.19-.06c-.19-.03-.39-.01-.57.06-.13.05-.24.13-.33.22s-.16.2-.22.32c-.05.12-.07.25-.07.39 0 .13.02.26.07.38.06.12.13.23.22.32.09.1.2.17.33.22.12.05.25.08.38.08M696.502 37c.55-.01.99-.46.98-1.02 0-.55-.46-.99-1.01-.98-.56 0-1 .46-.99 1.02.01.54.46.98 1 .98zm-3.02-1.01c.02-.55-.41-1.02-.96-1.04s-1.02.41-1.04.96c-.02.56.42 1.02.97 1.04h.03c.54 0 .98-.42 1-.96m7.07.81a.998.998 0 1 0-.16-1.99c-.55.04-.96.53-.91 1.08.04.52.48.91.99.91zm-11.06-1.01a1 1 0 0 0-.91-1.08.99.99 0 0 0-1.08.91c-.05.55.36 1.03.91 1.08 0 0 .06.01.09.01a1 1 0 0 0 .99-.92m15.1.54c.55-.08.92-.59.84-1.14-.09-.55-.6-.92-1.14-.84-.55.09-.92.6-.84 1.14.08.5.5.85.99.85h.15zm-19.08-.93a1.01 1.01 0 0 0-.86-1.13.995.995 0 0 0-1.12.86 1.003 1.003 0 0 0 .99 1.14c.49 0 .92-.37.99-.87m-3.96-.58a.99.99 0 0 0-.8-1.17 1 1 0 0 0-1.16.8c-.1.54.26 1.07.8 1.17.06.01.12.01.18.01.47 0 .9-.33.98-.81m27.04.75a1 1 0 1 0-.45-1.95 1 1 0 0 0-.75 1.2c.11.46.52.78.97.78.08 0 .15-.01.23-.03m-30.96-1.53a.99.99 0 0 0-.75-1.2c-.53-.13-1.07.21-1.2.74-.12.54.21 1.08.75 1.21.08 0 .15.02.23.02.45 0 .86-.31.97-.77m34.89.47c.53-.16.82-.72.66-1.25-.17-.53-.73-.82-1.26-.66-.53.17-.83.73-.66 1.26.13.42.53.7.95.7.1 0 .2-.02.3-.05zm-38.77-1.43a.997.997 0 0 0-.69-1.23c-.53-.15-1.09.15-1.24.68a1.008 1.008 0 0 0 .97 1.28c.43 0 .83-.29.96-.73m42.61.08c.51-.21.76-.79.56-1.3a.994.994 0 0 0-1.3-.56c-.51.2-.76.78-.56 1.3.16.39.53.63.93.63.12 0 .25-.03.37-.07m-46.45-1.22a.984.984 0 0 0-.63-1.26.987.987 0 0 0-1.26.62c-.18.53.1 1.1.63 1.27.1.04.21.05.31.05.42 0 .81-.26.95-.68m50.17-.44c.5-.25.7-.85.46-1.34-.25-.5-.85-.7-1.34-.46-.5.25-.7.85-.46 1.34.18.36.53.56.9.56.15 0 .3-.03.44-.1m-53.94-.87c.19-.52-.06-1.1-.57-1.3h-.01a1.001 1.001 0 0 0-.72 1.87q.18.06.36.06c.4 0 .78-.24.94-.63m-3.72-1.49c.22-.51 0-1.1-.51-1.32s-1.1.01-1.32.51c-.22.51 0 1.1.51 1.32.13.06.27.09.41.09.38 0 .75-.23.91-.6m61.24.41c.48-.28.63-.9.35-1.37s-.9-.63-1.37-.35a1 1 0 0 0 .51 1.86c.18 0 .35-.04.51-.14m-64.88-2.06a1 1 0 0 0-.46-1.34.993.993 0 0 0-1.34.45 1 1 0 0 0 .9 1.44c.37 0 .72-.2.9-.55m68.3-.16c.45-.32.56-.95.24-1.4s-.95-.55-1.4-.24a1.006 1.006 0 0 0 .58 1.82c.2 0 .4-.06.58-.18m-71.87-1.66a.99.99 0 0 0-.39-1.35.99.99 0 0 0-1.36.39c-.27.48-.09 1.09.39 1.36.15.08.32.12.48.12.36 0 .7-.19.88-.52m75.1-.82c.43-.36.49-.99.13-1.41a.99.99 0 0 0-1.4-.13 1 1 0 0 0-.14 1.41c.2.23.49.36.77.36.23 0 .46-.08.64-.23m-78.58-1.15a.997.997 0 0 0-.34-1.37.994.994 0 0 0-1.37.33c-.29.47-.14 1.09.33 1.38a1.02 1.02 0 0 0 1.38-.34m81.62-1.57c.4-.38.41-1.02.02-1.42-.38-.39-1.01-.4-1.41-.02a.996.996 0 0 0-.03 1.41c.2.21.46.31.72.31.25 0 .5-.09.7-.28m-85.02-.55c.31-.46.19-1.08-.26-1.39-.46-.31-1.08-.18-1.39.27a1 1 0 0 0 .27 1.39c.17.12.36.17.55.17.33 0 .64-.15.83-.44m-3.29-2.27c.33-.45.24-1.07-.2-1.4-.45-.33-1.07-.24-1.4.2a1.002 1.002 0 0 0 .8 1.6 1 1 0 0 0 .8-.4m91.13-.12a.99.99 0 0 0-.08-1.41.998.998 0 1 0-1.33 1.49c.19.17.43.26.67.26.27 0 .55-.11.74-.34m-94.31-2.31a1 1 0 0 0-.14-1.41 1.01 1.01 0 0 0-1.41.14 1 1 0 0 0 .14 1.41c.19.15.41.23.63.23.29 0 .58-.13.78-.37m96.92-.81c.34-.44.26-1.07-.18-1.41a.99.99 0 0 0-1.4.18.99.99 0 0 0 .18 1.4 1.004 1.004 0 0 0 1.4-.17m-99.98-1.77c.37-.4.33-1.04-.07-1.41a1.01 1.01 0 0 0-1.42.07.997.997 0 0 0 .07 1.41c.19.18.43.26.67.26.28 0 .55-.11.75-.33m102.36-1.54a1.001 1.001 0 1 0-1.67-1.11c-.3.46-.18 1.08.28 1.38.17.12.36.17.55.17.33 0 .64-.15.84-.44m-105.29-1.19a.996.996 0 1 0-1.41-1.41.996.996 0 0 0 0 1.41c.2.2.46.3.72.3.25 0 .5-.1.7-.29zm107.42-2.28a.996.996 0 0 0-.37-1.36 1 1 0 0 0-1.37.37c-.27.48-.1 1.09.38 1.37.16.08.32.13.49.13.35 0 .69-.19.87-.51m-110.19-.61a1 1 0 1 0-1.31-1.51c-.41.36-.46.99-.1 1.41.2.22.48.34.76.34.23 0 .46-.08.65-.24m112.07-3.01c.24-.5.02-1.1-.48-1.33a.997.997 0 0 0-1.33.48c-.23.5-.02 1.09.48 1.33.14.06.28.09.43.09.37 0 .73-.21.9-.57m-114.63-.07a1 1 0 0 0 .21-1.39.996.996 0 0 0-1.4-.21c-.45.32-.54.95-.21 1.39.19.27.5.41.8.41.21 0 .42-.06.6-.2m116.22-3.7c.19-.52-.08-1.09-.59-1.29-.52-.19-1.1.08-1.29.6-.19.51.08 1.09.59 1.28.12.04.23.06.35.06.41 0 .79-.25.94-.65m-118.53.43c.48-.28.64-.89.36-1.37-.28-.47-.9-.63-1.37-.35-.48.28-.64.89-.36 1.37.19.31.52.49.87.49.17 0 .34-.05.5-.14m-1.91-3.51c.52-.2.77-.78.58-1.3-.2-.51-.78-.77-1.3-.57-.51.2-.77.77-.57 1.29.15.4.53.64.93.64q.18 0 .36-.06m121.65-.86a.998.998 0 1 0-1.94-.47 1.002 1.002 0 0 0 .97 1.24c.45 0 .86-.31.97-.77M626.122-6c0-.55-.45-1-1-1s-1 .45-1 1 .45 1 1 1 1-.45 1-1"/></g><g clip-path="url(#b)"><path fill="#B95" d="M133 39.355c0-.55.45-.99 1-.99.56 0 1 .44 1 .99 0 .56-.44 1.01-1 1.01-.55 0-1-.45-1-1.01m0-4.11c0-.55.45-1 1-1 .56 0 1 .45 1 1s-.44 1-1 1c-.55 0-1-.45-1-1m0-4.11c0-.55.45-1 1-1 .56 0 1 .45 1 1s-.44 1-1 1c-.55 0-1-.45-1-1m0-4.11c0-.56.45-1 1-1 .56 0 1 .44 1 1 0 .55-.44 1-1 1-.55 0-1-.45-1-1m0-4.12c0-.55.45-1 1-1 .56 0 1 .45 1 1s-.44 1-1 1c-.55 0-1-.45-1-1m0-4.11c0-.55.45-1 1-1 .56 0 1 .45 1 1s-.44 1-1 1c-.55 0-1-.45-1-1m0-4.11c0-.56.45-1 1-1 .56 0 1 .44 1 1 0 .55-.44 1-1 1-.55 0-1-.45-1-1m0-4.12c0-.55.45-1 1-1 .56 0 1 .45 1 1 0 .56-.44 1-1 1-.55 0-1-.44-1-1m0-4.11c0-.55.45-1 1-1 .56 0 1 .45 1 1s-.44 1-1 1c-.55 0-1-.45-1-1m0-4.11c0-.55.45-1 1-1 .56 0 1 .45 1 1s-.44 1-1 1c-.55 0-1-.45-1-1m0-4.12c0-.55.45-1 1-1 .56 0 1 .45 1 1 0 .56-.44 1-1 1-.55 0-1-.44-1-1m0-4.11c0-.55.45-1 1-1 .56 0 1 .45 1 1s-.44 1-1 1c-.55 0-1-.45-1-1M134 44.475c-.13 0-.26-.03-.38-.08s-.23-.12-.33-.22a1 1 0 0 1-.12-.15.6.6 0 0 1-.09-.17c-.03-.06-.04-.12-.06-.19-.01-.06-.02-.13-.02-.19 0-.13.03-.26.08-.38q.075-.195.21-.33c.1-.09.21-.16.33-.22.18-.07.38-.09.58-.05.06 0 .12.03.18.05.06.03.12.06.18.1.05.03.1.08.15.12.09.09.16.2.22.33.05.12.07.25.07.38 0 .06 0 .13-.02.19 0 .07-.03.13-.05.19a1 1 0 0 1-.1.17c-.03.06-.08.11-.12.15-.05.05-.1.09-.15.13q-.09.06-.18.09-.09.045-.18.06c-.07.01-.13.02-.2.02"/><path fill="#B95" d="M138.804 48.77c-.354-.051-.681-.104-.975-.15q-3.005-.444-3.449-3.448c-.046-.295-.092-.622-.151-.976A.24.24 0 0 0 134 44a.23.23 0 0 0-.229.196q-.08.532-.151.976-.444 3.004-3.449 3.448c-.294.046-.621.092-.975.15A.24.24 0 0 0 129 49c0 .111.085.216.196.23.354.051.681.104.975.15q3.005.444 3.449 3.448c.046.295.092.622.151.976.02.11.118.196.229.196a.23.23 0 0 0 .229-.196q.08-.532.151-.976.444-3.004 3.449-3.448c.294-.046.621-.092.975-.15A.24.24 0 0 0 139 49a.23.23 0 0 0-.196-.23M82 43.355c0-.55.45-.99 1-.99.56 0 1 .44 1 .99 0 .56-.44 1.01-1 1.01-.55 0-1-.45-1-1.01m0-4.11c0-.55.45-1 1-1 .56 0 1 .45 1 1s-.44 1-1 1c-.55 0-1-.45-1-1m0-4.11c0-.55.45-1 1-1 .56 0 1 .45 1 1s-.44 1-1 1c-.55 0-1-.45-1-1m0-4.11c0-.56.45-1 1-1 .56 0 1 .44 1 1 0 .55-.44 1-1 1-.55 0-1-.45-1-1m0-4.12c0-.55.45-1 1-1 .56 0 1 .45 1 1s-.44 1-1 1c-.55 0-1-.45-1-1m0-4.11c0-.55.45-1 1-1 .56 0 1 .45 1 1s-.44 1-1 1c-.55 0-1-.45-1-1m0-4.11c0-.56.45-1 1-1 .56 0 1 .44 1 1 0 .55-.44 1-1 1-.55 0-1-.45-1-1m0-4.12c0-.55.45-1 1-1 .56 0 1 .45 1 1 0 .56-.44 1-1 1-.55 0-1-.44-1-1m0-4.11c0-.55.45-1 1-1 .56 0 1 .45 1 1s-.44 1-1 1c-.55 0-1-.45-1-1m0-4.11c0-.55.45-1 1-1 .56 0 1 .45 1 1s-.44 1-1 1c-.55 0-1-.45-1-1m0-4.12c0-.55.45-1 1-1 .56 0 1 .45 1 1 0 .56-.44 1-1 1-.55 0-1-.44-1-1m0-4.11c0-.55.45-1 1-1 .56 0 1 .45 1 1s-.44 1-1 1c-.55 0-1-.45-1-1M83 48.475c-.13 0-.26-.03-.38-.08s-.23-.12-.33-.22a1 1 0 0 1-.12-.15.6.6 0 0 1-.09-.17c-.03-.06-.04-.12-.06-.19-.01-.06-.02-.13-.02-.19 0-.13.03-.26.08-.38q.075-.195.21-.33c.1-.09.21-.16.33-.22.18-.07.38-.09.58-.05.06 0 .12.03.18.05.06.03.12.06.18.1.05.03.1.08.15.12.09.09.16.2.22.33.05.12.07.25.07.38 0 .06 0 .13-.02.19 0 .07-.03.13-.05.19a1 1 0 0 1-.1.17c-.03.06-.08.11-.12.15-.05.05-.1.09-.15.13q-.09.06-.18.09-.09.045-.18.06c-.07.01-.13.02-.2.02M83 103.995c-.13 0-.26-.02-.38-.07s-.23-.13-.32-.22c-.1-.09-.17-.2-.22-.33a1 1 0 0 1-.08-.38c0-.26.11-.52.3-.7.09-.1.2-.17.32-.22a1 1 0 0 1 .76 0c.13.05.24.12.33.22.04.04.09.09.12.15.04.05.07.11.1.17.02.06.04.12.05.19.02.06.02.13.02.19 0 .13-.02.26-.07.38-.06.13-.13.24-.22.33s-.2.17-.33.22c-.12.05-.25.07-.38.07M82 117.595c0-.55.45-1 1-1s1 .45 1 1-.45 1-1 1-1-.45-1-1m0-3.65c0-.56.45-1 1-1s1 .44 1 1c0 .55-.45 1-1 1s-1-.45-1-1m0-3.65c0-.56.45-1 1-1s1 .44 1 1c0 .55-.45 1-1 1s-1-.45-1-1m0-3.66c0-.55.45-1 1-1s1 .45 1 1c0 .56-.45 1-1 1s-1-.44-1-1M83 122.245c-.13 0-.26-.02-.38-.07-.12-.06-.23-.13-.33-.22a.9.9 0 0 1-.21-.33 1 1 0 0 1-.08-.38c0-.13.03-.26.08-.38q.075-.18.21-.33.15-.135.33-.21a1 1 0 0 1 .76 0q.195.075.33.21c.09.1.16.21.22.33.05.12.07.25.07.38s-.02.26-.07.38c-.06.13-.13.24-.22.33s-.2.16-.33.22c-.12.05-.25.07-.38.07M94.588 69.876H71.412l1.807 8.248h.03l2.111 11.588h-.864c0 1.178 1.169 2.013 2.563 2.602v2.632s.992 0 2.966.844c1.148.491 1.954 1.267 2.435 1.837a1.3 1.3 0 0 0-.766 1.178c0 .717.58 1.296 1.296 1.296a1.295 1.295 0 0 0 .53-2.474c.482-.57 1.287-1.346 2.436-1.837 1.974-.844 2.965-.844 2.965-.844v-2.632c1.395-.599 2.563-1.433 2.563-2.602h-.864l2.308-12.619 1.65-7.217zm-12.374 4.487c.344-.176.58-.461.747-.736.157.275.392.55.746.736 1.345.698 2.003 1.581 2.003 2.681q0 .398-.117.707l-.138.373h.236l-.855 11.588h-3.79l-.855-11.588h.266l-.138-.373a2 2 0 0 1-.118-.707c0-1.1.658-1.983 2.004-2.68zm-7.757 3.761h.422l-.118-.373a2.6 2.6 0 0 1-.098-.707c0-1.1.226-1.983 1.355-2.68.285-.177.481-.462.619-.737.137.275.334.55.618.736 1.12.698 1.67 1.581 1.67 2.681 0 .265-.03.501-.099.707l-.117.373h.314l.854 11.588h-3.29l-2.11-11.588zm11.568 11.588.854-11.588h.344l-.118-.373a2.2 2.2 0 0 1-.099-.707c0-1.1.54-1.983 1.67-2.68.285-.177.481-.462.619-.737.137.275.334.55.618.736 1.12.698 1.444 1.581 1.444 2.681 0 .265-.03.501-.098.707l-.118.373h.402l-2.11 11.588h-3.409m6.815-23.676v-4.272s-1.64 0-4.92-1.64c-2.053-1.03-3.467-2.7-4.233-3.8.226-.196.374-.471.374-.795 0-.393-.226-.727-.55-.914a2.346 2.346 0 0 0 1.826-2.278A2.343 2.343 0 0 0 83 50a2.343 2.343 0 0 0-2.337 2.337c0 1.11.785 2.043 1.826 2.278-.324.187-.55.511-.55.914 0 .324.148.599.374.795-.766 1.11-2.18 2.78-4.233 3.8-3.28 1.64-4.92 1.64-4.92 1.64v4.272c-1.257.687-2.15 1.552-2.16 2.661h24c0-1.1-.903-1.974-2.16-2.661M81.468 52.337c0-.844.688-1.532 1.532-1.532s1.532.688 1.532 1.532S83.845 53.87 83 53.87a1.534 1.534 0 0 1-1.532-1.532m3.692 11.686-1.541-.167-.629 1.414-.628-1.414-1.542.167.913-1.247-.913-1.247 1.542.167.628-1.414.629 1.414 1.541-.167-.913 1.247zM87.804 128.771q-.532-.08-.975-.151-3.004-.444-3.45-3.449c-.045-.294-.091-.621-.15-.975A.24.24 0 0 0 83 124a.23.23 0 0 0-.23.196c-.051.354-.104.681-.15.975q-.444 3.005-3.449 3.449c-.294.046-.621.092-.975.151A.24.24 0 0 0 78 129c0 .111.085.216.196.229q.532.08.975.151 3.004.444 3.45 3.449c.045.294.091.621.15.975.02.111.118.196.229.196a.23.23 0 0 0 .23-.196c.051-.354.104-.681.15-.975q.444-3.005 3.449-3.449c.294-.046.621-.092.975-.151A.24.24 0 0 0 88 129a.23.23 0 0 0-.196-.229M53.557 211.807 63 211l-9.443-.807 1.94-3.689-3.69 1.939L51 199l-.807 9.443-3.69-1.939 1.94 3.689L39 211l9.443.807-1.94 3.689 3.69-1.939L51 223l.807-9.443 3.69 1.939z"/><path fill="#B19552" d="M50 196.61c0-.55.45-1 1-1 .56 0 1 .45 1 1 0 .56-.44 1-1 1-.55 0-1-.44-1-1m0-3.96c0-.55.45-1 1-1 .56 0 1 .45 1 1s-.44 1-1 1c-.55 0-1-.45-1-1m0-3.97c0-.55.45-1 1-1 .56 0 1 .45 1 1 0 .56-.44 1-1 1-.55 0-1-.44-1-1m0-3.96c0-.55.45-1 1-1 .56 0 1 .45 1 1s-.44 1-1 1c-.55 0-1-.45-1-1m0-3.97c0-.55.45-1 1-1 .56 0 1 .45 1 1 0 .56-.44 1-1 1-.55 0-1-.44-1-1m0-3.96c0-.55.45-1 1-1 .56 0 1 .45 1 1s-.44 1-1 1c-.55 0-1-.45-1-1m0-3.96c0-.56.45-1 1-1 .56 0 1 .44 1 1 0 .55-.44 1-1 1-.55 0-1-.45-1-1m0-3.97c0-.55.45-1 1-1 .56 0 1 .45 1 1s-.44 1-1 1c-.55 0-1-.45-1-1m0-3.96c0-.55.45-1 1-1 .56 0 1 .45 1 1s-.44 1-1 1c-.55 0-1-.45-1-1m0-3.97c0-.55.45-1 1-1 .56 0 1 .45 1 1 0 .56-.44 1-1 1-.55 0-1-.44-1-1m0-3.96c0-.55.45-1 1-1 .56 0 1 .45 1 1s-.44 1-1 1c-.55 0-1-.45-1-1m0-3.97c0-.55.45-1 1-1 .56 0 1 .45 1 1 0 .56-.44 1-1 1-.55 0-1-.44-1-1m0-3.96c0-.55.45-1 1-1 .56 0 1 .45 1 1s-.44 1-1 1c-.55 0-1-.45-1-1m0-3.97c0-.55.45-1 1-1 .56 0 1 .45 1 1 0 .56-.44 1.01-1 1.01-.55 0-1-.45-1-1.01m0-3.96c0-.55.45-1 1-1 .56 0 1 .45 1 1s-.44 1-1 1c-.55 0-1-.45-1-1m0-3.96c0-.56.45-1 1-1 .56 0 1 .44 1 1 0 .55-.44 1-1 1-.55 0-1-.45-1-1m0-3.97c0-.55.45-1 1-1 .56 0 1 .45 1 1s-.44 1-1 1c-.55 0-1-.45-1-1m0-3.96c0-.56.45-1 1-1 .56 0 1 .44 1 1 0 .55-.44 1-1 1-.55 0-1-.45-1-1m0-3.97c0-.55.45-1 1-1 .56 0 1 .45 1 1 0 .56-.44 1-1 1-.55 0-1-.44-1-1m0-3.96c0-.55.45-1 1-1 .56 0 1 .45 1 1s-.44 1-1 1c-.55 0-1-.45-1-1m0-3.97c0-.55.45-1 1-1 .56 0 1 .45 1 1 0 .56-.44 1.01-1 1.01-.55 0-1-.45-1-1.01m0-3.96c0-.55.45-1 1-1 .56 0 1 .45 1 1s-.44 1-1 1c-.55 0-1-.45-1-1m0-3.96c0-.56.45-1.01 1-1.01.56 0 1 .45 1 1.01 0 .55-.44 1-1 1-.55 0-1-.45-1-1m0-3.97c0-.55.45-1 1-1 .56 0 1 .45 1 1s-.44 1-1 1c-.55 0-1-.45-1-1m0-3.96c0-.56.45-1 1-1 .56 0 1 .44 1 1 0 .55-.44 1-1 1-.55 0-1-.45-1-1m0-3.97c0-.55.45-1 1-1 .56 0 1 .45 1 1s-.44 1-1 1c-.55 0-1-.45-1-1m0-3.96c0-.55.45-1 1-1 .56 0 1 .45 1 1s-.44 1-1 1c-.55 0-1-.45-1-1m0-3.97c0-.55.45-1 1-1 .56 0 1 .45 1 1 0 .56-.44 1-1 1-.55 0-1-.44-1-1m0-3.96c0-.55.45-1 1-1 .56 0 1 .45 1 1s-.44 1-1 1c-.55 0-1-.45-1-1m0-3.96c0-.56.45-1.01 1-1.01.56 0 1 .45 1 1.01 0 .55-.44.99-1 .99-.55 0-1-.44-1-.99m0-3.97c0-.55.45-1 1-1 .56 0 1 .45 1 1s-.44 1-1 1c-.55 0-1-.45-1-1m0-3.96c0-.56.45-1 1-1 .56 0 1 .44 1 1 0 .55-.44 1-1 1-.55 0-1-.45-1-1m0-3.97c0-.55.45-1 1-1 .56 0 1 .45 1 1s-.44 1-1 1c-.55 0-1-.45-1-1m0-3.96c0-.56.45-1 1-1 .56 0 1 .44 1 1 0 .55-.44 1-1 1-.55 0-1-.45-1-1m0-3.97c0-.55.45-1 1-1 .56 0 1 .45 1 1s-.44 1-1 1c-.55 0-1-.45-1-1m0-3.96c0-.55.45-1 1-1 .56 0 1 .45 1 1s-.44 1-1 1c-.55 0-1-.45-1-1m0-3.97c0-.55.45-1 1-1 .56 0 1 .45 1 1 0 .56-.44 1-1 1-.55 0-1-.44-1-1m0-3.96c0-.55.45-1 1-1 .56 0 1 .45 1 1s-.44 1-1 1c-.55 0-1-.45-1-1m0-3.96c0-.56.45-1 1-1 .56 0 1 .44 1 1 0 .55-.44 1-1 1-.55 0-1-.45-1-1M50 42c0-.55.45-1 1-1 .56 0 1 .45 1 1s-.44 1-1 1c-.55 0-1-.45-1-1m0-3.96c0-.56.45-1 1-1 .56 0 1 .44 1 1 0 .55-.44 1-1 1-.55 0-1-.45-1-1m0-3.97c0-.55.45-1 1-1 .56 0 1 .45 1 1s-.44 1-1 1c-.55 0-1-.45-1-1m0-3.96c0-.55.45-1 1-1 .56 0 1 .45 1 1s-.44 1-1 1c-.55 0-1-.45-1-1m0-3.97c0-.55.45-1 1-1 .56 0 1 .45 1 1s-.44 1-1 1c-.55 0-1-.45-1-1m0-3.96c0-.55.45-1 1-1 .56 0 1 .45 1 1s-.44 1-1 1c-.55 0-1-.45-1-1m0-3.97c0-.55.45-.99 1-.99.56 0 1 .44 1 .99 0 .56-.44 1-1 1-.55 0-1-.44-1-1m0-3.96c0-.55.45-1 1-1 .56 0 1 .45 1 1s-.44 1-1 1c-.55 0-1-.45-1-1m0-3.96c0-.56.45-1 1-1 .56 0 1 .44 1 1 0 .55-.44.99-1 .99-.55 0-1-.44-1-.99m0-3.97c0-.55.45-1 1-1 .56 0 1 .45 1 1s-.44 1-1 1c-.55 0-1-.45-1-1m0-3.96c0-.56.45-1 1-1 .56 0 1 .44 1 1 0 .55-.44 1-1 1-.55 0-1-.45-1-1m0-3.97c0-.55.45-1 1-1 .56 0 1 .45 1 1s-.44 1-1 1c-.55 0-1-.45-1-1m0-3.96c0-.55.45-1 1-1 .56 0 1 .45 1 1s-.44 1-1 1c-.55 0-1-.45-1-1m0-3.97c0-.55.45-1 1-1 .56 0 1 .45 1 1 0 .56-.44 1-1 1-.55 0-1-.44-1-1m0-3.96c0-.55.45-1 1-1 .56 0 1 .45 1 1s-.44 1-1 1c-.55 0-1-.45-1-1m0-3.97c0-.55.45-.99 1-.99.56 0 1 .44 1 .99 0 .56-.44 1-1 1-.55 0-1-.44-1-1m0-3.96c0-.55.45-1 1-1 .56 0 1 .45 1 1s-.44 1-1 1c-.55 0-1-.45-1-1m0-3.96c0-.56.45-1 1-1 .56 0 1 .44 1 1 0 .55-.44 1-1 1-.55 0-1-.45-1-1m0-3.97c0-.55.45-1 1-1 .56 0 1 .45 1 1s-.44 1-1 1c-.55 0-1-.45-1-1m0-3.96c0-.55.45-1 1-1 .56 0 1 .45 1 1s-.44 1-1 1c-.55 0-1-.45-1-1m0-3.97c0-.55.45-1 1-1 .56 0 1 .45 1 1 0 .56-.44 1-1 1-.55 0-1-.44-1-1m0-3.96c0-.55.45-1 1-1 .56 0 1 .45 1 1s-.44 1-1 1c-.55 0-1-.45-1-1m0-3.97c0-.55.45-1 1-1 .56 0 1 .45 1 1 0 .56-.44 1-1 1-.55 0-1-.44-1-1m0-3.96c0-.55.45-1 1-1 .56 0 1 .45 1 1s-.44 1-1 1c-.55 0-1-.45-1-1m0-3.97c0-.55.45-.99 1-.99.56 0 1 .44 1 .99 0 .56-.44 1-1 1-.55 0-1-.44-1-1m0-3.96c0-.55.45-1 1-1 .56 0 1 .45 1 1s-.44 1-1 1c-.55 0-1-.45-1-1m0-3.96c0-.55.45-1 1-1 .56 0 1 .45 1 1s-.44 1-1 1c-.55 0-1-.45-1-1m0-3.97c0-.55.45-1 1-1 .56 0 1 .45 1 1 0 .56-.44 1-1 1-.55 0-1-.44-1-1M50-69c0-.55.45-1 1-1 .56 0 1 .45 1 1s-.44 1-1 1c-.55 0-1-.45-1-1"/><path fill="#B95" d="M51 177.362c-.06 0-.13 0-.19-.02-.07-.02-.13-.04-.19-.06-.06-.03-.12-.06-.17-.09a.988.988 0 0 1-.37-.45 1 1 0 0 1-.08-.38 1.05 1.05 0 0 1 .29-.71c.05-.05.1-.09.16-.13.05-.03.11-.06.17-.09.06-.02.12-.04.19-.06.19-.03.39-.01.57.06.13.05.24.13.33.22s.16.2.22.32c.05.12.07.25.07.39 0 .13-.02.26-.07.38-.06.12-.13.23-.22.32-.09.1-.2.17-.33.22-.12.05-.25.08-.38.08M81.498 37a.997.997 0 0 1-.98-1.02c0-.55.46-.99 1.01-.98.56 0 1 .46.99 1.02-.01.54-.46.98-1 .98zm3.02-1.01c-.02-.55.41-1.02.96-1.04s1.02.41 1.04.96c.02.56-.42 1.02-.97 1.04h-.03c-.54 0-.98-.42-1-.96m-7.07.81a.998.998 0 1 1 .16-1.99c.55.04.96.53.91 1.08-.04.52-.48.91-.99.91zm11.06-1.01a1 1 0 0 1 .91-1.08.99.99 0 0 1 1.08.91 1 1 0 0 1-.91 1.08s-.06.01-.09.01a1 1 0 0 1-.99-.92m-15.1.54a1 1 0 0 1-.84-1.14c.09-.55.6-.92 1.14-.84.55.09.92.6.84 1.14a1 1 0 0 1-.99.85h-.15zm19.08-.93c-.07-.55.31-1.05.86-1.13a.995.995 0 0 1 1.12.86c.08.55-.31 1.05-.85 1.13 0 0-.1.01-.14.01-.49 0-.92-.37-.99-.87m3.96-.58a.99.99 0 0 1 .8-1.17c.54-.1 1.06.26 1.16.8s-.26 1.07-.8 1.17c-.06.01-.12.01-.18.01-.47 0-.9-.33-.98-.81m-27.04.75a1 1 0 1 1 .45-1.95 1 1 0 0 1 .75 1.2c-.11.46-.52.78-.97.78-.08 0-.15-.01-.23-.03m30.96-1.53a.99.99 0 0 1 .75-1.2c.53-.13 1.07.21 1.2.74.12.54-.21 1.08-.75 1.21-.08 0-.15.02-.23.02-.45 0-.86-.31-.97-.77m-34.89.47a.997.997 0 0 1-.66-1.25c.17-.53.73-.82 1.26-.66.53.17.83.73.66 1.26-.13.42-.53.7-.95.7-.1 0-.2-.02-.3-.05zm38.77-1.43a.997.997 0 0 1 .69-1.23c.53-.15 1.09.15 1.24.68a1.008 1.008 0 0 1-.97 1.28c-.43 0-.83-.29-.96-.73m-42.61.08c-.51-.21-.76-.79-.56-1.3.21-.52.79-.77 1.3-.56.51.2.76.78.56 1.3-.16.39-.53.63-.93.63-.12 0-.25-.03-.37-.07m46.45-1.22c-.18-.52.1-1.09.63-1.26.52-.18 1.09.1 1.26.62a.99.99 0 0 1-.63 1.27.8.8 0 0 1-.31.05c-.42 0-.81-.26-.95-.68m-50.17-.44c-.5-.25-.7-.85-.46-1.34.25-.5.85-.7 1.34-.46.5.25.7.85.46 1.34-.18.36-.53.56-.9.56-.15 0-.3-.03-.44-.1m53.94-.87c-.19-.52.06-1.1.57-1.3h.01a1.001 1.001 0 0 1 .72 1.87q-.18.06-.36.06c-.4 0-.78-.24-.94-.63m3.72-1.49c-.22-.51 0-1.1.51-1.32s1.1.01 1.32.51c.22.51 0 1.1-.51 1.32-.13.06-.27.09-.41.09-.38 0-.75-.23-.91-.6m-61.24.41a1 1 0 0 1-.35-1.37c.28-.47.9-.63 1.37-.35a1 1 0 0 1-.51 1.86c-.18 0-.35-.04-.51-.14m64.88-2.06a1 1 0 0 1 .46-1.34.993.993 0 0 1 1.34.45 1 1 0 0 1-.9 1.44c-.37 0-.72-.2-.9-.55m-68.3-.16c-.45-.32-.56-.95-.24-1.4s.95-.55 1.4-.24a1.006 1.006 0 0 1-.58 1.82c-.2 0-.4-.06-.58-.18m71.87-1.66a.99.99 0 0 1 .39-1.35.99.99 0 0 1 1.36.39c.27.48.09 1.09-.39 1.36-.15.08-.32.12-.48.12-.36 0-.7-.19-.88-.52m-75.1-.82a.99.99 0 0 1-.13-1.41c.35-.43.98-.48 1.4-.13a1 1 0 0 1 .14 1.41c-.2.23-.49.36-.77.36-.23 0-.46-.08-.64-.23m78.58-1.15a.997.997 0 0 1 .34-1.37.994.994 0 0 1 1.37.33c.29.47.14 1.09-.33 1.38a1.02 1.02 0 0 1-1.38-.34m-81.62-1.57a1 1 0 0 1-.02-1.42c.38-.39 1.01-.4 1.41-.02s.41 1.02.03 1.41c-.2.21-.46.31-.72.31-.25 0-.5-.09-.7-.28m85.02-.55c-.31-.46-.19-1.08.26-1.39.46-.31 1.08-.18 1.39.27.31.46.19 1.08-.27 1.39-.17.12-.36.17-.55.17-.33 0-.64-.15-.83-.44m3.29-2.27c-.33-.45-.24-1.07.2-1.4.45-.33 1.07-.24 1.4.2a1.002 1.002 0 0 1-.8 1.6 1 1 0 0 1-.8-.4m-91.13-.12a.99.99 0 0 1 .08-1.41.998.998 0 1 1 1.33 1.49c-.19.17-.43.26-.67.26-.27 0-.55-.11-.74-.34m94.31-2.31a1 1 0 0 1 .14-1.41 1.01 1.01 0 0 1 1.41.14 1 1 0 0 1-.14 1.41c-.19.15-.41.23-.63.23-.29 0-.58-.13-.78-.37m-96.92-.81c-.34-.44-.26-1.07.18-1.41a.99.99 0 0 1 1.4.18c.34.44.26 1.06-.18 1.4a1.004 1.004 0 0 1-1.4-.17m99.98-1.77c-.37-.4-.33-1.04.07-1.41a1.01 1.01 0 0 1 1.42.07c.37.41.34 1.04-.07 1.41a.96.96 0 0 1-.67.26c-.28 0-.55-.11-.75-.33m-102.36-1.54a1.001 1.001 0 1 1 1.67-1.11c.3.46.18 1.08-.28 1.38-.17.12-.36.17-.55.17-.33 0-.64-.15-.84-.44m105.29-1.19a.996.996 0 1 1 1.41-1.41c.39.39.39 1.02 0 1.41-.2.2-.46.3-.72.3-.25 0-.5-.1-.7-.29zM34.708 9.29a.996.996 0 0 1 .37-1.36 1 1 0 0 1 1.37.37c.27.48.1 1.09-.38 1.37-.16.08-.32.13-.49.13-.35 0-.69-.19-.87-.51m110.19-.61a1 1 0 1 1 1.31-1.51c.41.36.46.99.1 1.41-.2.22-.48.34-.76.34-.23 0-.46-.08-.65-.24M32.828 5.67c-.24-.5-.02-1.1.48-1.33a.997.997 0 0 1 1.33.48c.23.5.02 1.09-.48 1.33-.14.06-.28.09-.43.09-.37 0-.73-.21-.9-.57m114.63-.07a1 1 0 0 1-.21-1.39c.33-.45.96-.54 1.4-.21.45.32.54.95.21 1.39-.19.27-.5.41-.8.41-.21 0-.42-.06-.6-.2M31.238 1.9c-.19-.52.08-1.09.59-1.29.52-.19 1.1.08 1.29.6.19.51-.08 1.09-.59 1.28-.12.04-.23.06-.35.06-.41 0-.79-.25-.94-.65m118.53.43a1 1 0 0 1-.36-1.37c.28-.47.9-.63 1.37-.35.48.28.64.89.36 1.37-.19.31-.52.49-.87.49-.17 0-.34-.05-.5-.14m1.91-3.51c-.52-.2-.77-.78-.58-1.3.2-.51.78-.77 1.3-.57.51.2.77.77.57 1.29a.99.99 0 0 1-.93.64q-.18 0-.36-.06m-121.65-.86a.998.998 0 1 1 1.94-.47 1.002 1.002 0 0 1-.97 1.24c-.45 0-.86-.31-.97-.77M151.878-6c0-.55.45-1 1-1s1 .45 1 1-.45 1-1 1-1-.45-1-1"/></g><g clip-path="url(#c)"><path fill="#B19552" d="M382.63 7c0-.55.45-1 1-1 .56 0 1 .45 1 1s-.44 1-1 1c-.55 0-1-.45-1-1m0-4c0-.56.45-1 1-1 .56 0 1 .44 1 1 0 .55-.44 1-1 1-.55 0-1-.45-1-1m0-4c0-.56.45-1 1-1 .56 0 1 .44 1 1 0 .55-.44 1-1 1-.55 0-1-.45-1-1m0-4c0-.55.45-1 1-1 .56 0 1 .45 1 1s-.44 1-1 1c-.55 0-1-.45-1-1m0-4c0-.55.45-1 1-1 .56 0 1 .45 1 1s-.44 1-1 1c-.55 0-1-.45-1-1m0-4c0-.56.45-1 1-1 .56 0 1 .44 1 1 0 .55-.44 1-1 1-.55 0-1-.45-1-1m0-4c0-.56.45-1 1-1 .56 0 1 .44 1 1 0 .55-.44 1-1 1-.55 0-1-.45-1-1m0-4c0-.55.45-1 1-1 .56 0 1 .45 1 1s-.44 1-1 1c-.55 0-1-.45-1-1m0-4c0-.55.45-1 1-1 .56 0 1 .45 1 1s-.44 1-1 1c-.55 0-1-.45-1-1M385.34 11.56c0 .92-.75 1.67-1.67 1.67s-1.67-.75-1.67-1.67.75-1.67 1.67-1.67 1.67.75 1.67 1.67"/><path fill="#B95" d="M384.001 16c-1.78 0-3.466.39-4.984 1.085q.467-.061.95-.063a7.347 7.347 0 1 1-7.346 7.345q.001-.095.004-.188a12 12 0 0 0-.625 3.822C372 34.628 377.372 40 383.999 40s12-5.372 12-12c0-6.627-5.371-12-11.998-12m7.337 15.914s-.093-2.492-2.337-4.036c2.243-1.545 2.337-4.037 2.337-4.037s.092 2.492 2.337 4.037c-2.244 1.544-2.337 4.036-2.337 4.036"/></g><defs><clipPath id="a"><path fill="#fff" d="M748 0H624v153h124z"/></clipPath><clipPath id="b"><path fill="#fff" d="M30 0h124v223H30z"/></clipPath><clipPath id="c"><path fill="#fff" d="M372 0h24v40h-24z"/></clipPath></defs></svg>