<svg xmlns="http://www.w3.org/2000/svg" width="144" height="144" fill="none"><path fill="#404040" d="M72 144c39.764 0 72-32.235 72-72S111.764 0 72 0 0 32.236 0 72s32.235 72 72 72"/><path fill="#fff" d="M80.842 69.996c-1.292 1.557-2.85 2.783-4.638 3.71-1.79.928-3.777 1.392-5.898 1.392-2.816 0-5.268-.696-7.322-2.087-2.087-1.392-3.71-3.313-4.837-5.831s-1.723-5.268-1.723-8.316c0-3.247.63-6.196 1.856-8.78 1.225-2.617 2.982-4.605 5.268-5.997Q66.977 42 71.499 42c4.804 0 8.614 1.79 11.397 5.4 2.783 3.579 4.175 8.515 4.175 14.71v1.823c0 9.476-1.855 16.4-5.6 20.74-3.743 4.34-9.409 6.593-16.963 6.693h-1.192v-5.268h1.292c5.102-.1 9.012-1.425 11.761-3.976 2.75-2.584 4.241-6.626 4.473-12.192zm-9.509 0c2.088 0 3.976-.63 5.732-1.888a11.43 11.43 0 0 0 3.844-4.705v-2.485c0-4.042-.895-7.355-2.651-9.906s-3.976-3.81-6.693-3.81-4.903 1.027-6.56 3.114q-2.484 3.13-2.484 8.25c0 3.412.795 6.063 2.385 8.216 1.59 2.154 3.71 3.214 6.394 3.214zM48.34 121.879l.298 2.022.431-1.823 3.015-10.602h1.69l2.948 10.602.431 1.823.331-2.055 2.353-10.403h2.02L58.18 126.65h-1.822l-3.147-11.065-.232-1.16-.232 1.16L49.5 126.65h-1.822L44 111.443h2.021l2.419 10.403zM69.014 117.308l3.645-5.832h2.352l-4.804 7.554 4.904 7.654h-2.386l-3.744-5.931-3.744 5.931h-2.385l4.936-7.654-4.804-7.554h2.353zM82.101 119.13l3.976-7.62h2.286l-5.235 9.541v5.666h-2.02v-5.666l-5.236-9.541h2.287zM91.809 125.06h8.713v1.624H89.456v-1.491l8.35-12.06h-8.184v-1.623h10.602v1.457l-8.35 12.093z"/></svg>