<svg xmlns="http://www.w3.org/2000/svg" width="144" height="144" fill="none"><path fill="#404040" d="M72 144c39.765 0 72-32.235 72-72S111.765 0 72 0 0 32.236 0 72s32.236 72 72 72"/><path fill="#fff" d="M88.547 45.479 68.403 90.67h-6.494l20.078-43.6h-26.34V42h32.9zM49.021 119.992v5.963h-2.02v-15.207h5.598c1.657 0 2.982.431 3.91 1.259.928.861 1.424 1.988 1.424 3.379 0 1.491-.463 2.618-1.391 3.413q-1.392 1.193-3.976 1.193h-3.578zm0-1.624h3.611c1.06 0 1.889-.265 2.452-.762s.862-1.226.862-2.187c0-.894-.299-1.623-.862-2.186-.563-.53-1.358-.829-2.352-.862h-3.71v5.997000000000001M72.114 118.832c0 1.458-.232 2.75-.696 3.81s-1.127 1.888-1.955 2.485l2.717 2.12-1.358 1.259-3.214-2.551a6.1 6.1 0 0 1-1.59.199q-1.79 0-3.181-.895c-.928-.596-1.657-1.424-2.154-2.518q-.745-1.64-.795-3.777v-1.093c0-1.458.265-2.75.762-3.876.497-1.127 1.226-1.988 2.154-2.585q1.392-.894 3.18-.894c1.193 0 2.32.298 3.247.894.928.597 1.657 1.458 2.154 2.551s.762 2.419.762 3.877v.961zm-1.988-.961c0-1.789-.365-3.181-1.06-4.142-.696-.96-1.723-1.457-3.049-1.457s-2.252.497-2.981 1.457-1.094 2.32-1.127 4.009v1.127c0 1.756.365 3.114 1.094 4.108s1.756 1.491 3.048 1.491 2.286-.464 3.015-1.425c.695-.927 1.06-2.286 1.093-4.042v-1.126zM80.794 119.826h-3.578v6.162h-2.021v-15.207h5.036c1.723 0 3.015.398 3.942 1.16.928.762 1.392 1.921 1.392 3.412a4.3 4.3 0 0 1-.762 2.485c-.497.696-1.226 1.226-2.154 1.557l3.579 6.461-2.154.132-3.313-6.162zm-3.578-1.657h3.081c.994 0 1.79-.265 2.386-.762q.894-.795.894-2.087c0-.928-.265-1.656-.828-2.153-.564-.497-1.359-.763-2.419-.763H77.25v5.765zM92.854 119.196c-1.723-.497-2.982-1.093-3.744-1.822-.795-.729-1.16-1.623-1.16-2.651 0-1.192.464-2.186 1.425-2.981.96-.796 2.187-1.193 3.744-1.193q1.59 0 2.783.596 1.242.597 1.889 1.69c.463.696.662 1.491.662 2.319h-2.02c0-.928-.3-1.656-.862-2.187q-.895-.795-2.485-.795c-.994 0-1.756.232-2.32.663-.562.431-.828 1.027-.828 1.822 0 .63.266 1.16.796 1.557q.795.647 2.683 1.193c1.26.365 2.253.762 2.949 1.193q1.093.646 1.59 1.491c.331.563.53 1.226.53 2.021 0 1.226-.464 2.22-1.458 2.948-.96.762-2.252 1.127-3.843 1.127-1.06 0-2.02-.199-2.915-.596-.895-.398-1.59-.928-2.088-1.657-.497-.696-.728-1.491-.728-2.352h2.02c0 .927.332 1.656 1.028 2.186.695.53 1.59.795 2.716.795 1.06 0 1.856-.198 2.419-.629s.861-1.027.861-1.756-.265-1.325-.795-1.723c-.53-.397-1.457-.795-2.849-1.193z"/></svg>