<svg xmlns="http://www.w3.org/2000/svg" width="144" height="144" fill="none"><path fill="#526357" d="M72 144c39.765 0 72-32.235 72-72S111.765 0 72 0 0 32.236 0 72s32.236 72 72 72"/><path fill="#B1BFB5" d="M70.075 95.263c-.734 0-1.468-.543-1.468-1.357 0-5.561-1.65-16.413-5.501-23.059-.367-.678-.55-1.085-.55-1.492 0-2.17 4.584-1.628 7.335-2.713 13.387-5.426 19.255-13.835 19.255-21.296 0-8.545-7.702-15.598-18.521-15.598-9.72 0-19.622 5.968-19.622 15.87 0 1.22.183 2.305.367 3.526v.272c0 .407-.367.813-.917.813-.184 0-.55-.135-.917-.542C45.135 43.176 40 43.447 40 41.14 40 38.021 50.453 25 73.926 25 91.896 25 104 33.817 104 44.126c0 6.917-5.868 16.005-27.874 25.365-2.75 1.085-4.218 1.763-4.951 24.415 0 .95-.55 1.357-1.1 1.357M67.874 119c-4.218 0-8.252-2.17-8.252-5.968 0-.814.183-6.918 9.169-6.918 5.868 0 8.252 2.984 8.252 5.968s-2.2 6.918-9.17 6.918"/></svg>