<svg xmlns="http://www.w3.org/2000/svg" width="144" height="144" fill="none"><path fill="#404040" d="M72 144c39.764 0 72-32.235 72-72S111.764 0 72 0 0 32.236 0 72s32.236 72 72 72"/><path fill="#fff" d="M89.008 91.366H57.135v-4.44l16.831-18.719c2.485-2.816 4.208-5.135 5.169-6.891.96-1.79 1.424-3.612 1.424-5.5 0-2.551-.762-4.639-2.319-6.262-1.524-1.623-3.578-2.452-6.162-2.452-3.082 0-5.467.862-7.157 2.618s-2.55 4.174-2.55 7.288h-6.196c0-4.472 1.458-8.084 4.34-10.867S67.274 42 72.11 42c4.539 0 8.117 1.193 10.734 3.545 2.618 2.386 3.943 5.533 3.943 9.476q0 7.206-9.144 17.096l-13.02 14.147h24.45v5.035zM61.873 122.675h-6.361l-1.425 3.976H52l5.798-15.208h1.756l5.831 15.208h-2.054zm-5.765-1.657h5.169l-2.584-7.123zM67.406 126.651v-15.208h4.97c1.656 0 2.882.332 3.71 1.027.829.696 1.26 1.69 1.26 3.015q0 1.094-.597 1.889c-.397.563-.96.961-1.656 1.259a3.66 3.66 0 0 1 1.954 1.292c.464.63.73 1.425.73 2.319 0 1.359-.431 2.452-1.326 3.214-.894.795-2.12 1.16-3.744 1.16H67.44zm2.021-8.714h3.015c.862 0 1.59-.232 2.087-.662s.796-1.028.796-1.79c0-.828-.232-1.457-.73-1.822-.496-.364-1.225-.563-2.219-.563h-2.982v4.837zm0 1.59v5.467h3.313c.928 0 1.657-.232 2.22-.729.53-.464.795-1.159.795-1.988 0-1.822-.994-2.75-2.981-2.75zM91.923 121.814c-.198 1.623-.795 2.849-1.789 3.71-.994.862-2.319 1.326-3.975 1.326-1.79 0-3.247-.63-4.308-1.922-1.093-1.292-1.623-3.015-1.623-5.168v-1.458c0-1.392.265-2.651.762-3.711a5.85 5.85 0 0 1 2.154-2.485c.927-.563 1.987-.861 3.213-.861 1.624 0 2.916.464 3.877 1.358s1.557 2.154 1.69 3.744h-2.022c-.165-1.226-.563-2.087-1.126-2.65-.597-.564-1.392-.829-2.452-.829-1.292 0-2.286.464-3.015 1.425-.729.928-1.093 2.286-1.093 4.042v1.491c0 1.656.331 2.949 1.027 3.942.696.961 1.656 1.458 2.882 1.458 1.127 0 1.955-.265 2.552-.762.596-.497.993-1.391 1.192-2.65h2.054"/></svg>