<svg xmlns="http://www.w3.org/2000/svg" width="144" height="144" fill="none"><path fill="#404040" d="M72 144c39.765 0 72-32.235 72-72S111.765 0 72 0 0 32.236 0 72s32.236 72 72 72"/><path fill="#fff" d="M83.216 75.336h6.759v5.036h-6.76V91.67h-6.228V80.372H54.822v-3.644L76.622 43h6.594zm-21.37 0h15.141V51.482l-.729 1.325zM64.696 125a4.73 4.73 0 0 1-2.154 1.657c-.928.364-1.988.53-3.214.53s-2.352-.299-3.313-.862c-.96-.596-1.69-1.391-2.22-2.485S53 121.521 53 120.13v-1.326c0-2.286.53-4.075 1.59-5.334s2.585-1.888 4.506-1.888c1.59 0 2.85.397 3.844 1.226.96.795 1.557 1.954 1.789 3.445h-2.021c-.365-2.021-1.558-3.048-3.579-3.048-1.358 0-2.352.464-3.048 1.425-.695.928-1.027 2.319-1.06 4.108v1.259c0 1.69.398 3.048 1.16 4.075.762.994 1.822 1.524 3.18 1.524.762 0 1.392-.099 1.988-.265a3.24 3.24 0 0 0 1.392-.828v-3.412h-3.512v-1.624h5.5v5.566zM79.704 126.988h-2.02v-7.024h-7.687v7.024h-2.021v-15.207h2.02v6.527h7.687v-6.527h2.021zM85.436 126.988h-2.021v-15.207h2.02z"/></svg>