<svg xmlns="http://www.w3.org/2000/svg" width="144" height="144" fill="none"><path fill="#404040" d="M72 144c39.764 0 72-32.235 72-72S111.764 0 72 0 0 32.236 0 72s32.236 72 72 72"/><path fill="#fff" d="M59.72 66.285 62.205 42h24.947v5.732h-19.68l-1.457 13.285c2.385-1.391 5.102-2.12 8.117-2.12 4.44 0 7.951 1.458 10.569 4.407 2.617 2.948 3.91 6.89 3.91 11.894 0 5.003-1.36 8.945-4.076 11.86-2.717 2.883-6.494 4.34-11.364 4.34q-6.46 0-10.536-3.577c-2.716-2.386-4.274-5.666-4.638-9.907h5.864c.365 2.783 1.358 4.87 2.982 6.295 1.59 1.425 3.71 2.12 6.361 2.12 2.883 0 5.136-.96 6.759-2.948 1.623-1.955 2.452-4.671 2.452-8.117 0-3.247-.895-5.864-2.65-7.852-1.757-1.988-4.142-2.949-7.058-2.949-2.683 0-4.804.596-6.361 1.756l-1.623 1.325-4.937-1.259zM59.587 110.781h2.021v10.767c0 1.458-.43 2.585-1.325 3.413-.862.828-2.021 1.226-3.479 1.226s-2.684-.398-3.545-1.16c-.828-.762-1.259-1.855-1.259-3.247h2.021c0 .862.232 1.557.729 2.021.464.497 1.16.729 2.087.729.828 0 1.491-.265 2.021-.795.497-.53.762-1.259.762-2.187v-10.8zM68.897 118.931l-1.855 1.922v5.135H65.02v-15.207h2.02v7.521l6.76-7.521h2.418l-5.997 6.726 6.461 8.481h-2.419l-5.4-7.09zM80.46 124.365h7.19v1.656h-9.211v-15.207h2.021v13.584z"/></svg>