<svg xmlns="http://www.w3.org/2000/svg" width="144" height="144" fill="none"><path fill="#404040" d="M72 144c39.764 0 72-32.235 72-72S111.764 0 72 0 0 32.236 0 72s32.235 72 72 72"/><g fill="#fff"><path d="M79.897 42.033v5.235H78.77c-4.804.1-8.647 1.524-11.496 4.274-2.85 2.783-4.506 6.66-4.937 11.662 2.551-2.949 6.063-4.407 10.503-4.407s7.62 1.492 10.138 4.473 3.81 6.825 3.81 11.563c0 5.003-1.358 9.012-4.108 12.027-2.717 3.015-6.395 4.506-11 4.506s-8.415-1.79-11.33-5.367c-2.883-3.579-4.341-8.184-4.341-13.816v-2.386c0-8.945 1.922-15.803 5.732-20.541S71.249 42.099 78.803 42h1.094zM71.78 63.966q-3.18 0-5.865 1.888c-2.685 1.888-3.015 2.85-3.71 4.771v2.286c0 4.01.894 7.256 2.716 9.708q2.684 3.678 6.76 3.678c4.075 0 4.969-1.028 6.56-3.082q2.385-3.08 2.385-8.05c0-3.314-.795-6.03-2.419-8.118-1.623-2.054-3.777-3.081-6.427-3.081M54.584 110.814l4.97 12.424 4.97-12.424h2.584v15.207H65.12v-5.931l.199-6.394-5.003 12.325h-1.524l-4.97-12.292.199 6.361v5.931H52v-15.207zM82.349 126.021h-2.022l-7.653-11.729v11.729h-2.02v-15.207h2.02l7.686 11.761v-11.761h1.988zM97.622 118.898c0 1.491-.265 2.783-.762 3.909-.497 1.094-1.226 1.955-2.12 2.551-.928.597-1.988.862-3.214.862s-2.253-.298-3.18-.895c-.928-.596-1.657-1.424-2.154-2.518q-.746-1.64-.795-3.777v-1.093c0-1.458.264-2.75.761-3.876.497-1.127 1.226-1.988 2.154-2.585q1.392-.894 3.18-.894c1.193 0 2.287.298 3.214.894.928.597 1.657 1.425 2.154 2.552.497 1.126.762 2.418.762 3.909zm-1.988-.961c0-1.789-.364-3.181-1.093-4.141-.73-.961-1.723-1.458-3.048-1.458-1.326 0-2.253.464-2.982 1.458-.729.96-1.094 2.319-1.127 4.009v1.126c0 1.756.365 3.114 1.094 4.108s1.756 1.491 3.048 1.491 2.286-.464 3.015-1.424c.696-.928 1.06-2.287 1.093-4.042z"/></g></svg>