<svg xmlns="http://www.w3.org/2000/svg" width="144" height="144" fill="none"><path fill="#404040" d="M72 144c39.764 0 72-32.235 72-72S111.764 0 72 0 0 32.236 0 72s32.235 72 72 72"/><path fill="#fff" d="M66.623 64.033h4.638c2.916-.034 5.202-.796 6.892-2.32 1.656-1.49 2.518-3.512 2.518-6.063 0-5.698-2.85-8.548-8.515-8.548-2.684 0-4.804.762-6.394 2.287q-2.386 2.285-2.386 6.063h-6.195c0-3.877 1.391-7.057 4.24-9.609C64.238 43.293 67.816 42 72.156 42c4.605 0 8.183 1.226 10.8 3.645s3.91 5.798 3.91 10.138c0 2.12-.695 4.174-2.054 6.162s-3.247 3.48-5.6 4.44c2.685.861 4.739 2.253 6.197 4.208 1.457 1.954 2.186 4.34 2.186 7.189 0 4.373-1.424 7.82-4.274 10.403-2.849 2.551-6.56 3.844-11.132 3.844s-8.283-1.26-11.165-3.711c-2.85-2.485-4.307-5.732-4.307-9.807h6.229c0 2.551.828 4.605 2.517 6.162 1.657 1.558 3.91 2.32 6.726 2.32 2.982 0 5.268-.762 6.858-2.353 1.59-1.557 2.386-3.81 2.386-6.725 0-2.916-.862-5.003-2.618-6.527-1.722-1.524-4.24-2.286-7.52-2.353h-4.639V64zM54 126.684v-15.207h4.307c1.325 0 2.485.298 3.512.861 1.027.596 1.79 1.425 2.352 2.485.564 1.093.829 2.319.829 3.711v.96c0 1.425-.265 2.684-.829 3.777q-.845 1.64-2.385 2.485c-1.027.597-2.22.862-3.578.895H54zm1.988-13.584v11.927h2.12c1.557 0 2.75-.464 3.612-1.457.861-.961 1.292-2.32 1.292-4.109v-.894c0-1.723-.398-3.082-1.226-4.042-.828-.961-1.955-1.458-3.446-1.458h-2.352zM76.629 119.66h-6.593v5.401h7.653v1.623h-9.675v-15.207h9.542v1.623h-7.554v4.904h6.594v1.623zM88.556 119.958h-6.394v6.726H80.14v-15.207h9.409v1.623h-7.422v5.202h6.395v1.656z"/></svg>