<svg xmlns="http://www.w3.org/2000/svg" width="144" height="144" fill="none"><path fill="#404040" d="M72 144c39.764 0 72-32.235 72-72S111.764 0 72 0 0 32.236 0 72s32.236 72 72 72"/><path fill="#fff" d="M86.003 55.352c0 2.419-.63 4.605-1.922 6.494s-3.015 3.38-5.201 4.44c2.55 1.093 4.539 2.683 6.03 4.77 1.49 2.088 2.22 4.473 2.22 7.124 0 4.207-1.425 7.587-4.274 10.071s-6.594 3.744-11.232 3.744-8.415-1.259-11.231-3.744c-2.817-2.517-4.241-5.864-4.241-10.038 0-2.618.729-5.003 2.153-7.124 1.425-2.12 3.413-3.71 5.964-4.804-2.154-1.06-3.877-2.55-5.103-4.44q-1.888-2.832-1.888-6.46c0-4.108 1.325-7.355 3.943-9.774C63.838 43.193 67.317 42 71.624 42s7.753 1.193 10.37 3.611c2.65 2.419 3.976 5.666 3.976 9.774zm-5.036 22.695q0-4.076-2.584-6.66-2.584-2.583-6.76-2.584c-2.782 0-5.035.862-6.692 2.552-1.69 1.69-2.517 3.909-2.517 6.692s.828 4.937 2.451 6.527 3.91 2.385 6.825 2.385 5.169-.795 6.825-2.385S81 80.83 81 78.08zM71.69 47.069c-2.418 0-4.406.762-5.897 2.253-1.491 1.524-2.253 3.545-2.253 6.13s.729 4.472 2.22 5.996c1.49 1.524 3.445 2.286 5.93 2.286s4.44-.762 5.93-2.286c1.492-1.524 2.22-3.545 2.22-5.997s-.761-4.472-2.319-6.03c-1.524-1.557-3.478-2.352-5.864-2.352zM63.341 113.067h-4.903v13.584H56.45v-13.584h-4.87v-1.624H63.34zM76.329 111.41v10.337c0 1.425-.464 2.618-1.359 3.512-.894.928-2.12 1.425-3.644 1.524h-.53c-1.657 0-2.982-.431-3.976-1.325-.994-.895-1.49-2.12-1.49-3.711v-10.37h1.987v10.304c0 1.093.298 1.955.895 2.551.596.596 1.457.928 2.584.928 1.126 0 2.02-.298 2.617-.895.597-.596.895-1.458.895-2.551V111.41zM84.512 123.967l4.34-12.524h2.187l-5.632 15.208h-1.79l-5.632-15.208h2.187z"/></svg>