<svg xmlns="http://www.w3.org/2000/svg" width="144" height="144" fill="none"><path fill="#404040" d="M72 144c39.764 0 72-32.235 72-72S111.764 0 72 0 0 32.236 0 72s32.236 72 72 72"/><path fill="#fff" d="M87.713 70.592c0 7.256-1.226 12.623-3.71 16.135-2.486 3.512-6.329 5.268-11.597 5.268s-9.045-1.723-11.53-5.168S57.1 78.246 57 71.387v-8.25c0-7.156 1.226-12.457 3.71-15.935C63.197 43.722 67.073 42 72.34 42s9.078 1.69 11.563 5.036c2.484 3.346 3.744 8.515 3.81 15.539zm-6.196-8.448c0-5.235-.728-9.045-2.22-11.43-1.457-2.386-3.81-3.579-6.99-3.579s-5.467 1.193-6.925 3.579c-1.457 2.385-2.186 6.063-2.253 11v9.906c0 5.267.763 9.144 2.286 11.662s3.844 3.743 6.925 3.743 5.334-1.192 6.792-3.545c1.49-2.352 2.253-6.096 2.319-11.165V62.177zM73.665 115.22h5.93v2.551h-5.93v6.726h-2.717v-6.726h-5.93v-2.551h5.93v-6.195h2.717z"/></svg>